{"title":"Demi Lovato - Let It Go [Music Video] 720p [Sbyky]","uid":9240685,"size":51223937,"categoryP":"video","categoryS":"music_videos","magnet":"?xt=urn:btih:a5eb65ad68d6ca08b5aefd2558ee57a6bd1e2ea8&amp;dn=Demi+Lovato+-+Let+It+Go+%5BMusic+Video%5D+720p+%5BSbyky%5D&amp;tr=udp%3A%2F%2Ftracker.openbittorrent.com%3A80&amp;tr=udp%3A%2F%2Fopen.demonii.com%3A1337&amp;tr=udp%3A%2F%2Ftracker.coppersurfer.tk%3A6969&amp;tr=udp%3A%2F%2Fexodus.desync.com%3A6969","seeders":1,"leechers":0,"uploader":"Sbyky","files":1,"time":1385267719,"description":"\n\nGeneral\nComplete name                            : Demi Lovato - Let It Go [Music Video] 720p [Sbyky].MP4\nFormat                                   : MPEG-4\nFormat profile                           : Base Media\nCodec ID                                 : isom\nFile size                                : 48.9 MiB\nDuration                                 : 3mn 50s\nOverall bit rate mode                    : Variable\nOverall bit rate                         : 1 780 Kbps\nEncoded date                             : UTC 2013-10-29 20:23:10\nTagged date                              : UTC 2013-10-29 20:23:10\n\nVideo\nID                                       : 1\nFormat                                   : AVC\nFormat/Info                              : Advanced Video Codec\nFormat profile                           : &lt;a class=&quot;__cf_email__&quot; href=&quot;/cdn-cgi/l/email-protection&quot; data-cfemail=&quot;5c113d35321c106f726d&quot;&gt;[email&amp;#160;protected]&lt;/a&gt;&lt;script cf-hash='f9e31' type=&quot;text/javascript&quot;&gt;\n/* &lt;![CDATA[ */!function(){try{var t=&quot;currentScript&quot;in document?document.currentScript:function(){for(var t=document.getElementsByTagName(&quot;script&quot;),e=t.length;e--;)if(t[e].getAttribute(&quot;cf-hash&quot;))return t[e]}();if(t&amp;&amp;t.previousSibling){var e,r,n,i,c=t.previousSibling,a=c.getAttribute(&quot;data-cfemail&quot;);if(a){for(e=&quot;&quot;,r=parseInt(a.substr(0,2),16),n=2;a.length-n;n+=2)i=parseInt(a.substr(n,2),16)^r,e+=String.fromCharCode(i);e=document.createTextNode(e),c.parentNode.replaceChild(e,c)}}}catch(u){}}();/* ]]&gt; */&lt;/script&gt;\nFormat settings, CABAC                   : Yes\nFormat settings, ReFrames                : 3 frames\nCodec ID                                 : avc1\nCodec ID/Info                            : Advanced Video Coding\nDuration                                 : 3mn 50s\nBit rate                                 : 1 524 Kbps\nWidth                                    : 1 280 pixels\nHeight                                   : 720 pixels\nDisplay aspect ratio                     : 16:9\nFrame rate mode                          : Constant\nFrame rate                               : 23.976 fps\nColor space                              : YUV\nChroma subsampling                       : 4:2:0\nBit depth                                : 8 bits\nScan type                                : Progressive\nBits/(Pixel*Frame)                       : 0.069\nStream size                              : 41.8 MiB (86%)\nEncoded date                             : UTC 2013-10-29 20:23:10\nTagged date                              : UTC 2013-10-29 20:23:10\n\nAudio\nID                                       : 2\nFormat                                   : AAC\nFormat/Info                              : Advanced Audio Codec\nFormat profile                           : LC\nCodec ID                                 : 40\nDuration                                 : 3mn 50s\nBit rate mode                            : Variable\nBit rate                                 : 254 Kbps\nChannel(s)                               : 2 channels\nChannel positions                        : Front: L R\nSampling rate                            : 44.1 KHz\nCompression mode                         : Lossy\nDelay relative to video                  : 42ms\nStream size                              : 6.96 MiB (14%)\nEncoded date                             : UTC 2013-10-29 20:23:01\nTagged date                              : UTC 2013-10-29 20:23:01\n\nShared By Sbyky\n","torrent":{"xt":"urn:btih:a5eb65ad68d6ca08b5aefd2558ee57a6bd1e2ea8","amp;dn":"Demi+Lovato+-+Let+It+Go+%5BMusic+Video%5D+720p+%5BSbyky%5D","amp;tr":["udp%3A%2F%2Ftracker.openbittorrent.com%3A80","udp%3A%2F%2Fopen.demonii.com%3A1337","udp%3A%2F%2Ftracker.coppersurfer.tk%3A6969","udp%3A%2F%2Fexodus.desync.com%3A6969"],"infoHash":"a5eb65ad68d6ca08b5aefd2558ee57a6bd1e2ea8","infoHashBuffer":{"type":"Buffer","data":[165,235,101,173,104,214,202,8,181,174,253,37,88,238,87,166,189,30,46,168]},"announce":[],"urlList":[]}}